# xmcd CD database file generated by Grip 2.6
# 
# Track frame offsets:
#       150
#       19350
#       34695
#       52327
#       72462
#       84667
#       111880
#       129107
#       140165
#       152767
#       171952
#       193502
# 
# Disc length: 2888 seconds
# 
# Revision: 3
# Processed by: cddbd v1.4b41PL1 Copyright (c) Steve Scherf et al.
# Submitted via: Grip 2.6
# 
DISCID=ae0b460c
DTITLE=Don Baker - Born With The blues
DYEAR=1900
DGENRE=
TTITLE0=Born With The Blues
TTITLE1=Don't Start Me Talking
TTITLE2=Lonesome Road
TTITLE3=Spotlight
TTITLE4=Hesitation Blues
TTITLE5=Mannish Boy
TTITLE6=Ain't Got No Money
TTITLE7=Lord Have Mercy
TTITLE8=Six Days On The Road
TTITLE9=Louise baby
TTITLE10=Shoeshine Man
TTITLE11=Magnolia
EXTD=
EXTT0=
EXTT1=
EXTT2=
EXTT3=
EXTT4=
EXTT5=
EXTT6=
EXTT7=
EXTT8=
EXTT9=
EXTT10=
EXTT11=
PLAYORDER=
